<svg width="36" height="53" viewBox="0 0 36 53" fill="none" xmlns="http://www.w3.org/2000/svg">
<g clip-path="url(#clip0_720_1041)">
<path d="M9.42794 52.1226C14.1748 52.1226 18.0273 48.2701 18.0273 43.5233V34.924H9.42794C4.68111 34.924 0.828613 38.7764 0.828613 43.5233C0.828613 48.2701 4.68111 52.1226 9.42794 52.1226Z" fill="#0ACF83"/>
<path d="M0.828613 26.3254C0.828613 21.5786 4.68111 17.7261 9.42794 17.7261H18.0273V34.9247H9.42794C4.68111 34.9247 0.828613 31.0722 0.828613 26.3254Z" fill="#A259FF"/>
<path d="M0.828613 9.12606C0.828613 4.37923 4.68111 0.526733 9.42794 0.526733H18.0273V17.7254H9.42794C4.68111 17.7254 0.828613 13.8729 0.828613 9.12606Z" fill="#F24E1E"/>
<path d="M18.0273 0.526733H26.6267C31.3735 0.526733 35.226 4.37923 35.226 9.12606C35.226 13.8729 31.3735 17.7254 26.6267 17.7254H18.0273V0.526733Z" fill="#FF7262"/>
<path d="M35.226 26.3254C35.226 31.0722 31.3735 34.9247 26.6267 34.9247C21.8798 34.9247 18.0273 31.0722 18.0273 26.3254C18.0273 21.5786 21.8798 17.7261 26.6267 17.7261C31.3735 17.7261 35.226 21.5786 35.226 26.3254Z" fill="#1ABCFE"/>
</g>
<defs>
<clipPath id="clip0_720_1041">
<rect width="34.4042" height="51.596" fill="white" transform="translate(0.825195 0.527039)"/>
</clipPath>
</defs>
</svg>
