<svg width="192" height="67" viewBox="0 0 192 67" fill="none" xmlns="http://www.w3.org/2000/svg">
<rect x="0.44165" width="191.558" height="66.9177" rx="11.2381" fill="white"/>
<path d="M107.787 24.7749C107.787 27.2249 107.158 29.5283 106.052 31.5335L109.732 36.5686L104.843 33.3697C102.266 36.687 98.2321 38.8225 93.6979 38.8225C85.9166 38.8225 79.6087 32.5332 79.6087 24.7749C79.6087 24.4756 79.618 24.1785 79.6365 23.8838L74.7195 21.9968H79.8841C81.1773 15.5692 86.8705 10.7273 93.6979 10.7273C101.479 10.7273 107.787 17.0166 107.787 24.7749Z" fill="black"/>
<path d="M89.3802 23.779C89.4168 23.9614 89.429 24.156 89.429 24.3384C89.429 24.5451 89.4046 24.7397 89.3802 24.9342C89.1241 26.7219 87.6727 28.1203 85.8798 28.3392H82.111V23.2074H83.8186V26.6367H85.7456C86.697 26.4908 87.4654 25.7612 87.6605 24.8248C87.6971 24.6667 87.7093 24.5086 87.7093 24.3384C87.7093 24.1924 87.6971 24.0344 87.6727 23.8884C87.5507 23.329 87.2458 22.8305 86.7823 22.49C86.5018 22.2832 86.1847 22.1373 85.8432 22.0643C85.7334 22.04 85.6115 22.0278 85.4895 22.0157H74.751V20.3132L85.6968 20.3254C86.5628 20.3862 87.4044 20.7388 88.063 21.3225C88.7826 21.9549 89.2461 22.8305 89.3802 23.779Z" fill="white"/>
<path d="M95.4566 20.3132H97.1641V25.3355C97.1641 25.9801 96.9323 26.6002 96.4933 27.0623C96.3347 27.2326 96.164 27.3907 95.9688 27.5366C95.2614 28.0595 94.432 28.3392 93.5417 28.3392C92.6513 28.3392 91.8097 28.0595 91.1145 27.5366C90.9194 27.3907 90.7486 27.2326 90.5779 27.0502C90.151 26.5881 89.9193 25.9801 89.9193 25.3234V20.3132H91.6268V24.7153C91.6268 25.7368 92.4562 26.6124 93.4685 26.6367C93.4929 26.6367 93.5173 26.6367 93.5417 26.6367C93.5661 26.6367 93.5905 26.6367 93.6149 26.6367C94.6272 26.6124 95.4566 25.749 95.4566 24.7153V20.3132Z" fill="white"/>
<path d="M98.0339 27.8406L99.9853 25.2018L101.046 26.6367L99.8877 28.2176L99.7902 28.3392H97.668L98.0339 27.8406ZM111.423 36.0176L111.801 36.5162H109.679L109.581 36.3946L100.729 24.2046V24.1924L98.229 20.8118L97.8509 20.3132H99.9853L100.083 20.4348L101.79 22.7575L103.498 20.4348L103.596 20.3132H105.718L105.352 20.8239L102.852 24.1924L111.423 36.0176Z" fill="white"/>
<path d="M71.3118 29.7327C70.7167 29.7327 70.1733 29.6488 69.6946 29.4682C69.2095 29.2876 68.7954 29.0296 68.4461 28.6878C68.0968 28.3524 67.8316 27.9203 67.644 27.4043C67.4499 26.8883 67.3594 26.3079 67.3594 25.6565V20.2129H69.9081V25.5146C69.9081 25.8628 69.9534 26.1724 70.0504 26.4498C70.1474 26.7271 70.3027 26.9528 70.5226 27.1334C70.7426 27.314 71.0013 27.3979 71.3118 27.3979C71.5835 27.3979 71.8293 27.3269 72.0493 27.185C72.2692 27.0431 72.4374 26.8238 72.5668 26.5336C72.6961 26.2498 72.7608 25.908 72.7608 25.5146V20.2129H75.2966V25.6565C75.2966 26.482 75.1413 27.1979 74.8438 27.8042C74.5397 28.4105 74.0869 28.8877 73.4853 29.2231C72.8773 29.565 72.1528 29.7327 71.3118 29.7327Z" fill="black"/>
<path d="M76.668 29.5972V20.2129H79.2231V29.5972H76.668Z" fill="black"/>
<path d="M76.6698 22.7411L76.6646 22.0178L79.2217 21.9968V23.7266L76.6698 22.7411Z" fill="white"/>
<path d="M75.2979 22.217V22.0178H74.7581L75.2979 22.217Z" fill="white"/>
<path d="M65.4424 52.5424V39.5843H74.3131V41.9324H68.1384V45.2198H73.4434V47.5679H68.1384V52.5424H65.4424ZM75.4596 52.5424V43.0456H78.0686V52.5424H75.4596ZM75.4596 42.1933V39.5843H78.0686V42.1933H75.4596ZM84.6393 56.369C83.9087 56.369 83.2304 56.2473 82.6042 56.0038C81.9781 55.7602 81.4389 55.4182 80.9866 54.9775C80.546 54.5485 80.2271 54.0383 80.03 53.4469L82.4477 52.5946C82.5752 53.0353 82.8361 53.3831 83.2304 53.6382C83.6246 53.8933 84.0943 54.0209 84.6393 54.0209C85.0683 54.0209 85.4394 53.9397 85.7524 53.7774C86.0655 53.6266 86.3032 53.4005 86.4656 53.099C86.6395 52.7976 86.7265 52.4439 86.7265 52.038V49.8638L87.2309 50.49C86.9062 51.0234 86.4888 51.4235 85.9786 51.6902C85.4684 51.9453 84.8712 52.0728 84.187 52.0728C83.3058 52.0728 82.5173 51.8757 81.8215 51.4814C81.1258 51.0756 80.5808 50.5248 80.1865 49.8291C79.7923 49.1217 79.5951 48.3216 79.5951 47.4288C79.5951 46.5359 79.7923 45.7474 80.1865 45.0632C80.5808 44.3675 81.12 43.8225 81.8041 43.4283C82.4883 43.034 83.2652 42.8369 84.1349 42.8369C84.819 42.8369 85.4162 42.976 85.9264 43.2543C86.4366 43.521 86.8714 43.9327 87.2309 44.4893L86.9004 45.1154V43.0456H89.3355V52.038C89.3355 52.8729 89.1326 53.615 88.7267 54.2644C88.3209 54.9254 87.7643 55.4414 87.057 55.8124C86.3612 56.1835 85.5553 56.369 84.6393 56.369ZM84.5523 49.7073C84.9929 49.7073 85.3756 49.6145 85.7003 49.429C86.0249 49.2435 86.2743 48.9826 86.4482 48.6463C86.6337 48.31 86.7265 47.9158 86.7265 47.4635C86.7265 47.0113 86.6337 46.6171 86.4482 46.2808C86.2627 45.9329 86.0076 45.6662 85.6829 45.4807C85.3582 45.2836 84.9813 45.185 84.5523 45.185C84.1117 45.185 83.7174 45.2836 83.3695 45.4807C83.0333 45.6662 82.7666 45.9329 82.5694 46.2808C82.3839 46.6171 82.2911 47.0113 82.2911 47.4635C82.2911 47.9042 82.3839 48.2926 82.5694 48.6289C82.7666 48.9652 83.0333 49.2319 83.3695 49.429C83.7174 49.6145 84.1117 49.7073 84.5523 49.7073ZM91.2564 52.5424V43.0456H93.6915V45.3589L93.4306 44.9763C93.5697 44.2457 93.906 43.7065 94.4394 43.3587C94.9728 43.0108 95.6106 42.8369 96.3527 42.8369C97.1412 42.8369 97.8311 43.0398 98.4225 43.4456C99.0255 43.8399 99.4024 44.3733 99.5531 45.0458L98.8052 45.1154C99.1183 44.3385 99.5647 43.7645 100.144 43.3935C100.724 43.0224 101.403 42.8369 102.18 42.8369C102.864 42.8369 103.467 42.9876 103.988 43.2891C104.522 43.5906 104.939 44.0138 105.241 44.5588C105.542 45.0922 105.693 45.7184 105.693 46.4373V52.5424H103.084V46.9939C103.084 46.6229 103.014 46.304 102.875 46.0373C102.748 45.7706 102.562 45.5619 102.319 45.4111C102.075 45.2604 101.779 45.185 101.432 45.185C101.095 45.185 100.8 45.2604 100.545 45.4111C100.301 45.5619 100.11 45.7706 99.9706 46.0373C99.843 46.304 99.7792 46.6229 99.7792 46.9939V52.5424H97.1702V46.9939C97.1702 46.6229 97.1006 46.304 96.9615 46.0373C96.8339 45.7706 96.6484 45.5619 96.4049 45.4111C96.1614 45.2604 95.8657 45.185 95.5178 45.185C95.1815 45.185 94.8858 45.2604 94.6307 45.4111C94.3872 45.5619 94.1959 45.7706 94.0568 46.0373C93.9292 46.304 93.8654 46.6229 93.8654 46.9939V52.5424H91.2564ZM110.349 52.7512C109.665 52.7512 109.074 52.641 108.575 52.4207C108.077 52.2004 107.694 51.8873 107.427 51.4814C107.161 51.064 107.027 50.5712 107.027 50.003C107.027 49.4696 107.149 49 107.393 48.5941C107.636 48.1767 108.007 47.8288 108.506 47.5505C109.016 47.2722 109.648 47.0751 110.402 46.9591L113.306 46.4895V48.4028L110.871 48.8376C110.5 48.9072 110.216 49.029 110.019 49.2029C109.822 49.3652 109.723 49.6029 109.723 49.916C109.723 50.2059 109.833 50.432 110.054 50.5944C110.274 50.7567 110.547 50.8379 110.871 50.8379C111.3 50.8379 111.677 50.7451 112.002 50.5596C112.327 50.3741 112.576 50.1248 112.75 49.8117C112.935 49.487 113.028 49.1333 113.028 48.7507V46.2808C113.028 45.9213 112.883 45.6198 112.593 45.3763C112.315 45.1328 111.932 45.0111 111.445 45.0111C110.981 45.0111 110.57 45.1386 110.21 45.3937C109.862 45.6488 109.607 45.9851 109.445 46.4025L107.358 45.4111C107.543 44.8777 107.839 44.4197 108.245 44.037C108.651 43.6544 109.138 43.3587 109.706 43.15C110.274 42.9412 110.894 42.8369 111.567 42.8369C112.367 42.8369 113.074 42.9818 113.689 43.2717C114.304 43.5616 114.779 43.9675 115.115 44.4893C115.463 44.9995 115.637 45.5966 115.637 46.2808V52.5424H113.202V51.0118L113.793 50.9075C113.515 51.3249 113.208 51.6728 112.872 51.9511C112.535 52.2178 112.158 52.4149 111.741 52.5424C111.323 52.6816 110.86 52.7512 110.349 52.7512ZM120.867 52.5424V39.5843H125.842C126.735 39.5843 127.523 39.7408 128.207 40.0539C128.903 40.367 129.448 40.8308 129.842 41.4454C130.237 42.06 130.434 42.8195 130.434 43.7239C130.434 44.6052 130.231 45.3531 129.825 45.9677C129.431 46.5823 128.886 47.0519 128.19 47.3766C127.506 47.6897 126.723 47.8462 125.842 47.8462H123.563V52.5424H120.867ZM123.563 45.4981H125.859C126.242 45.4981 126.572 45.4227 126.851 45.272C127.129 45.1212 127.343 44.9125 127.494 44.6458C127.656 44.3791 127.738 44.0718 127.738 43.7239C127.738 43.3645 127.656 43.0514 127.494 42.7847C127.343 42.518 127.129 42.3093 126.851 42.1585C126.572 42.0078 126.242 41.9324 125.859 41.9324H123.563V45.4981ZM131.971 52.5424V39.3756H134.581V52.5424H131.971ZM139.899 52.7512C139.134 52.7512 138.478 52.5888 137.933 52.2642C137.4 51.9279 136.994 51.4641 136.716 50.8727C136.438 50.2813 136.298 49.5914 136.298 48.8028V43.0456H138.907V48.5941C138.907 48.9536 138.977 49.2725 139.116 49.5508C139.267 49.8175 139.476 50.0262 139.742 50.1769C140.009 50.3277 140.31 50.403 140.647 50.403C140.995 50.403 141.296 50.3277 141.551 50.1769C141.818 50.0262 142.021 49.8175 142.16 49.5508C142.311 49.2725 142.386 48.9536 142.386 48.5941V43.0456H144.995V52.5424H142.56V50.664L142.699 51.0814C142.479 51.6496 142.119 52.0728 141.621 52.3511C141.134 52.6178 140.56 52.7512 139.899 52.7512ZM151.563 56.369C150.833 56.369 150.155 56.2473 149.528 56.0038C148.902 55.7602 148.363 55.4182 147.911 54.9775C147.47 54.5485 147.151 54.0383 146.954 53.4469L149.372 52.5946C149.499 53.0353 149.76 53.3831 150.155 53.6382C150.549 53.8933 151.018 54.0209 151.563 54.0209C151.993 54.0209 152.364 53.9397 152.677 53.7774C152.99 53.6266 153.227 53.4005 153.39 53.099C153.564 52.7976 153.651 52.4439 153.651 52.038V49.8638L154.155 50.49C153.83 51.0234 153.413 51.4235 152.903 51.6902C152.393 51.9453 151.795 52.0728 151.111 52.0728C150.23 52.0728 149.441 51.8757 148.746 51.4814C148.05 51.0756 147.505 50.5248 147.111 49.8291C146.717 49.1217 146.519 48.3216 146.519 47.4288C146.519 46.5359 146.717 45.7474 147.111 45.0632C147.505 44.3675 148.044 43.8225 148.728 43.4283C149.412 43.034 150.189 42.8369 151.059 42.8369C151.743 42.8369 152.34 42.976 152.851 43.2543C153.361 43.521 153.796 43.9327 154.155 44.4893L153.825 45.1154V43.0456H156.26V52.038C156.26 52.8729 156.057 53.615 155.651 54.2644C155.245 54.9254 154.689 55.4414 153.981 55.8124C153.285 56.1835 152.48 56.369 151.563 56.369ZM151.477 49.7073C151.917 49.7073 152.3 49.6145 152.624 49.429C152.949 49.2435 153.198 48.9826 153.372 48.6463C153.558 48.31 153.651 47.9158 153.651 47.4635C153.651 47.0113 153.558 46.6171 153.372 46.2808C153.187 45.9329 152.932 45.6662 152.607 45.4807C152.282 45.2836 151.906 45.185 151.477 45.185C151.036 45.185 150.642 45.2836 150.294 45.4807C149.957 45.6662 149.691 45.9329 149.494 46.2808C149.308 46.6171 149.215 47.0113 149.215 47.4635C149.215 47.9042 149.308 48.2926 149.494 48.6289C149.691 48.9652 149.957 49.2319 150.294 49.429C150.642 49.6145 151.036 49.7073 151.477 49.7073ZM158.181 52.5424V43.0456H160.79V52.5424H158.181ZM158.181 42.1933V39.5843H160.79V42.1933H158.181ZM162.699 52.5424V43.0456H165.134V44.9241L164.995 44.5067C165.215 43.9385 165.569 43.521 166.056 43.2543C166.554 42.976 167.134 42.8369 167.795 42.8369C168.514 42.8369 169.14 42.9876 169.674 43.2891C170.219 43.5906 170.642 44.0138 170.943 44.5588C171.245 45.0922 171.396 45.7184 171.396 46.4373V52.5424H168.787V46.9939C168.787 46.6229 168.711 46.304 168.56 46.0373C168.421 45.7706 168.218 45.5619 167.952 45.4111C167.697 45.2604 167.395 45.185 167.047 45.185C166.711 45.185 166.409 45.2604 166.143 45.4111C165.876 45.5619 165.667 45.7706 165.517 46.0373C165.377 46.304 165.308 46.6229 165.308 46.9939V52.5424H162.699Z" fill="black"/>
<g clip-path="url(#clip0_720_1037)">
<path d="M27.4279 61.1226C32.1748 61.1226 36.0273 57.2701 36.0273 52.5233V43.924H27.4279C22.6811 43.924 18.8286 47.7764 18.8286 52.5233C18.8286 57.2701 22.6811 61.1226 27.4279 61.1226Z" fill="#0ACF83"/>
<path d="M18.8286 35.3254C18.8286 30.5786 22.6811 26.7261 27.4279 26.7261H36.0273V43.9247H27.4279C22.6811 43.9247 18.8286 40.0722 18.8286 35.3254Z" fill="#A259FF"/>
<path d="M18.8286 18.1261C18.8286 13.3792 22.6811 9.52673 27.4279 9.52673H36.0273V26.7254H27.4279C22.6811 26.7254 18.8286 22.8729 18.8286 18.1261Z" fill="#F24E1E"/>
<path d="M36.0273 9.52673H44.6267C49.3735 9.52673 53.226 13.3792 53.226 18.1261C53.226 22.8729 49.3735 26.7254 44.6267 26.7254H36.0273V9.52673Z" fill="#FF7262"/>
<path d="M53.226 35.3254C53.226 40.0722 49.3735 43.9247 44.6267 43.9247C39.8798 43.9247 36.0273 40.0722 36.0273 35.3254C36.0273 30.5786 39.8798 26.7261 44.6267 26.7261C49.3735 26.7261 53.226 30.5786 53.226 35.3254Z" fill="#1ABCFE"/>
</g>
<defs>
<clipPath id="clip0_720_1037">
<rect width="34.4042" height="51.596" fill="white" transform="translate(18.8252 9.52704)"/>
</clipPath>
</defs>
</svg>
